<?xml version="1.0" encoding="UTF-8"?>
<svg xmlns="http://www.w3.org/2000/svg" width="1287" height="2664" viewBox="0 0 1287 2664" role="img" aria-label="Payment2 framed in iPhone 15 Pro">
  <metadata>iPhone 15 Pro; model=iPhone16,1; chrome=com.apple.dt.devicekit.chrome.phone9; screen=1179x2556px; points=393x852pt; scale=3; screenCornerRadius=55pt; dynamicIsland=126x37pt; sensorBar=sensor_bar_class_04 (393x47pt)</metadata>
  <defs>
    <clipPath id="screenClip">
      <rect x="54" y="54" width="1179" height="2556" rx="165" ry="165" />
    </clipPath>
    <linearGradient id="bodyFill" x1="0" y1="0" x2="1" y2="1">
      <stop offset="0%" stop-color="#20242b" />
      <stop offset="42%" stop-color="#05070a" />
      <stop offset="100%" stop-color="#171a20" />
    </linearGradient>
    <linearGradient id="rimStroke" x1="0" y1="0" x2="1" y2="0">
      <stop offset="0%" stop-color="#4b5563" />
      <stop offset="18%" stop-color="#111827" />
      <stop offset="50%" stop-color="#6b7280" />
      <stop offset="82%" stop-color="#111827" />
      <stop offset="100%" stop-color="#4b5563" />
    </linearGradient>
    <filter id="phoneShadow" x="-7%" y="-4%" width="114%" height="112%">
      <feDropShadow dx="0" dy="24" stdDeviation="34" flood-color="#020617" flood-opacity="0.22" />
    </filter>
  </defs>
  <rect x="0" y="0" width="1287" height="2664" rx="225" ry="225" fill="url(#bodyFill)" filter="url(#phoneShadow)" />
  <rect x="6" y="6" width="1275" height="2652" rx="219" ry="219" fill="none" stroke="url(#rimStroke)" stroke-width="6" opacity="0.9" />
  <rect x="24" y="480" width="48" height="102" rx="24.0" fill="#111827" opacity="0.86" />
  <rect x="24" y="663" width="48" height="192" rx="24.0" fill="#111827" opacity="0.86" />
  <rect x="24" y="900" width="48" height="192" rx="24.0" fill="#111827" opacity="0.86" />
  <rect x="1215" y="786" width="48" height="303" rx="24.0" fill="#111827" opacity="0.86" />
  <rect x="46" y="46" width="1195" height="2572" rx="173" ry="173" fill="#030712" />
  <image href="../../../DSKitExplorerTests/__Snapshots__/DSKitExplorerTests/Payment2.snapshot.png" x="54" y="54" width="1179" height="2556" preserveAspectRatio="xMidYMid slice" clip-path="url(#screenClip)" />
  <rect x="54" y="54" width="1179" height="2556" rx="165" ry="165" fill="none" stroke="#05070a" stroke-width="6" />
  <rect x="454.5" y="87" width="378" height="111" rx="55.5" ry="55.5" fill="#020617" opacity="0.96" />
</svg>
